{"glyphs":{"0":{"ha":739,"x_min":81,"x_max":658,"o":"m 369 -8 q 256 8 308 -8 q 164 59 203 24 q 103 151 125 94 q 81 289 81 207 l 81 719 q 103 856 81 800 q 164 948 125 913 q 256 999 203 983 q 369 1015 308 1015 q 483 999 431 1015 q 575 948 536 983 q 636 856 614 913 q 658 719 658 800 l 658 289 q 636 151 658 207 q 575 59 614 94 q 483 8 536 24 q 369 -8 431 -8 m 567 719 q 515 879 567 828 q 369 931 463 931 q 224 879 276 931 q 172 719 172 828 l 172 289 q 224 128 172 179 q 369 76 276 76 q 515 128 463 76 q 567 289 567 179 l 567 719 m 371 553 q 406 539 392 553 q 421 503 421 525 q 406 467 421 482 q 371 451 392 451 q 333 467 347 451 q 319 503 319 482 q 333 539 319 525 q 371 553 347 553 z "},"1":{"ha":324,"x_min":18,"x_max":228,"o":"m 136 860 l 81 769 q 54 753 69 753 q 28 765 39 753 q 18 793 18 778 q 25 815 18 803 q 39 835 32 828 l 153 996 q 167 1010 160 1004 q 188 1017 174 1017 q 215 1008 203 1017 q 228 982 228 999 l 228 36 q 213 9 228 18 q 182 0 199 0 q 150 9 164 0 q 136 36 136 18 l 136 860 z "},"2":{"ha":660,"x_min":47,"x_max":618,"o":"m 71 785 q 91 877 71 835 q 147 950 111 919 q 229 998 182 981 q 332 1015 276 1015 q 442 994 392 1015 q 530 938 493 974 q 588 853 567 903 q 608 749 608 804 q 574 615 608 674 q 488 507 539 556 q 375 417 436 458 q 263 336 314 375 q 176 257 211 297 q 142 171 142 217 l 142 85 l 585 85 q 608 72 599 85 q 618 43 618 60 q 608 13 618 26 q 585 0 599 0 l 90 0 q 62 10 76 0 q 47 36 47 19 l 47 171 q 82 276 47 228 q 169 369 117 325 q 282 454 221 413 q 395 540 343 496 q 482 635 447 585 q 517 746 517 685 q 506 812 517 779 q 471 870 494 844 q 412 913 447 896 q 329 929 376 929 q 209 889 257 929 q 161 765 161 849 q 149 740 161 751 q 113 728 136 728 q 81 740 92 728 q 71 785 71 753 z "},"3":{"ha":676,"x_min":39,"x_max":617,"o":"m 325 76 q 474 126 422 76 q 525 285 525 176 l 525 311 q 472 451 525 407 q 328 496 418 496 q 300 508 308 496 q 292 535 292 519 q 299 563 292 550 q 326 575 307 575 q 455 613 410 575 q 500 753 500 650 q 460 888 500 844 q 332 932 419 932 q 243 917 278 932 q 188 881 208 903 q 161 832 168 858 q 154 783 154 806 q 110 739 154 739 q 72 750 82 739 q 63 792 63 761 q 74 859 63 821 q 116 932 86 897 q 199 991 146 967 q 335 1015 251 1015 q 438 1002 390 1015 q 518 960 485 989 q 570 884 551 931 q 589 771 589 838 q 556 617 589 675 q 475 536 524 560 q 577 458 538 511 q 617 311 617 404 l 617 285 q 594 149 617 206 q 532 58 571 93 q 440 8 493 24 q 326 -8 386 -8 q 199 13 253 -8 q 109 68 144 35 q 56 142 74 101 q 39 221 39 182 q 49 260 39 250 q 82 269 58 269 q 119 259 110 269 q 129 231 129 249 q 138 181 129 208 q 169 131 147 154 q 230 92 192 108 q 325 76 268 76 z "},"4":{"ha":617,"x_min":11,"x_max":603,"o":"m 400 239 l 47 239 q 20 250 29 239 q 11 276 11 261 q 17 300 11 290 l 365 988 q 384 1009 372 1003 q 408 1015 396 1015 q 438 1005 422 1015 q 453 978 453 994 q 449 960 453 969 l 128 326 l 400 326 l 400 594 q 414 621 400 613 q 446 629 428 629 q 477 621 463 629 q 492 594 492 613 l 492 326 l 568 326 q 594 313 586 326 q 603 283 603 299 q 593 253 603 267 q 568 239 583 239 l 492 239 l 492 36 q 477 9 492 18 q 446 0 463 0 q 414 9 428 0 q 400 36 400 18 l 400 239 z "},"5":{"ha":658,"x_min":39,"x_max":615,"o":"m 328 597 q 442 582 389 597 q 533 533 494 567 q 593 444 571 499 q 615 313 615 390 l 615 286 q 593 150 615 206 q 532 59 571 94 q 440 8 493 24 q 328 -8 388 -8 q 205 11 258 -8 q 115 63 151 31 q 58 138 78 94 q 39 228 39 181 q 51 263 39 253 q 83 274 64 274 q 131 235 131 274 q 146 167 131 197 q 188 117 161 138 q 249 87 214 97 q 326 76 285 76 q 472 127 419 76 q 524 286 524 178 l 524 313 q 472 467 524 417 q 328 518 419 518 l 135 518 q 97 528 106 518 q 88 553 88 538 q 88 567 88 557 q 89 581 89 576 l 117 981 q 146 1015 121 1015 l 535 1015 q 558 1002 550 1015 q 565 974 565 989 q 558 944 565 957 q 535 931 550 931 l 199 931 l 176 597 l 328 597 z "},"6":{"ha":718,"x_min":81,"x_max":658,"o":"m 382 599 q 490 585 440 599 q 578 540 540 572 q 637 454 615 507 q 658 322 658 401 l 658 289 q 636 151 658 207 q 575 59 614 94 q 483 8 536 24 q 369 -8 431 -8 q 256 8 308 -8 q 164 59 203 24 q 103 151 125 94 q 81 289 81 207 l 81 719 q 103 856 81 800 q 165 948 125 913 q 257 999 204 983 q 372 1015 310 1015 q 495 995 442 1015 q 585 942 549 975 q 640 866 621 908 q 658 778 658 824 q 647 745 658 754 q 615 736 635 736 q 581 744 596 736 q 567 774 567 753 q 551 839 567 810 q 509 888 536 868 q 446 919 482 908 q 369 931 410 931 q 224 879 276 931 q 172 719 172 828 l 172 507 q 263 577 208 556 q 382 599 317 599 m 172 285 q 224 125 172 176 q 369 74 276 74 q 515 125 463 74 q 567 285 567 176 l 567 318 q 515 474 567 428 q 369 519 463 519 q 226 476 279 519 q 172 331 172 433 l 172 285 z "},"7":{"ha":638,"x_min":38,"x_max":615,"o":"m 615 861 q 601 821 615 842 l 189 15 q 158 -3 179 -3 q 120 10 138 -3 q 103 42 103 22 q 108 61 103 47 l 524 856 l 524 931 l 129 931 l 129 771 q 115 746 129 756 q 83 736 101 736 q 51 746 64 736 q 38 771 38 756 l 38 981 q 51 1004 38 993 q 79 1015 64 1015 l 572 1015 q 601 1004 588 1015 q 615 981 615 993 l 615 861 z "},"8":{"ha":697,"x_min":60,"x_max":638,"o":"m 349 1015 q 452 1003 404 1015 q 535 963 500 990 q 590 888 571 935 q 610 772 610 840 q 576 630 610 682 q 488 554 543 578 q 597 465 556 526 q 638 294 638 403 l 638 278 q 615 146 638 200 q 554 57 593 92 q 463 7 515 22 q 349 -8 410 -8 q 235 7 288 -8 q 143 57 182 22 q 82 146 104 92 q 60 278 60 200 l 60 294 q 101 465 60 403 q 211 554 143 526 q 122 630 156 578 q 88 772 88 682 q 108 888 88 840 q 163 963 128 935 q 245 1003 197 990 q 349 1015 293 1015 m 546 304 q 494 462 546 413 q 349 511 442 511 q 204 462 257 511 q 151 304 151 413 l 151 285 q 204 124 151 176 q 350 72 257 72 q 494 124 443 72 q 546 285 546 176 l 546 304 m 349 935 q 223 896 268 935 q 178 765 178 857 q 223 633 178 674 q 349 593 268 593 q 476 633 431 593 q 521 765 521 674 q 476 896 521 857 q 349 935 431 935 z "},"9":{"ha":718,"x_min":60,"x_max":638,"o":"m 336 408 q 228 422 278 408 q 140 467 178 435 q 81 553 103 500 q 60 686 60 607 l 60 719 q 82 856 60 800 q 142 948 104 913 q 233 999 181 983 q 347 1015 286 1015 q 461 999 408 1015 q 553 948 514 983 q 615 856 593 913 q 638 719 638 800 l 638 289 q 615 151 638 207 q 553 59 593 94 q 460 8 514 24 q 346 -8 407 -8 q 222 12 275 -8 q 132 65 168 32 q 78 141 96 99 q 60 229 60 183 q 103 272 60 272 q 135 263 121 272 q 150 233 150 254 q 165 168 150 197 q 208 119 181 139 q 271 88 235 99 q 347 76 307 76 q 494 128 442 76 q 546 289 546 179 l 546 501 q 456 431 510 453 q 336 408 401 408 m 546 722 q 493 883 546 832 q 347 935 440 935 q 203 883 254 935 q 151 722 151 832 l 151 689 q 203 533 151 579 q 349 488 254 488 q 430 498 393 488 q 492 531 467 508 q 532 589 518 553 q 546 676 546 625 l 546 722 z "},"A":{"ha":750,"x_min":29,"x_max":721,"o":"m 82 0 q 47 10 64 0 q 29 39 29 21 q 31 49 29 46 l 321 992 q 342 1016 326 1008 q 375 1024 357 1024 q 410 1015 394 1024 q 431 992 425 1007 l 719 49 q 720 44 719 46 q 721 40 721 43 q 703 12 721 24 q 665 0 685 0 q 631 24 639 0 l 567 238 l 182 238 l 118 24 q 105 6 115 11 q 82 0 94 0 m 543 317 l 375 876 l 206 317 l 543 317 z "},"Æ":{"ha":993,"x_min":101,"x_max":960,"o":"m 600 549 l 804 549 q 830 536 821 549 q 839 507 839 524 q 831 481 839 493 q 804 469 824 469 l 600 469 l 600 85 l 926 85 q 951 72 942 85 q 960 42 960 58 q 952 13 960 26 q 926 0 944 0 l 551 0 q 522 9 536 0 q 508 36 508 18 l 508 469 l 190 469 l 190 43 q 183 12 190 24 q 144 0 175 0 q 111 12 121 0 q 101 43 101 24 l 101 719 q 124 856 101 800 q 185 948 146 913 q 276 999 224 983 q 388 1015 328 1015 l 926 1015 q 952 1003 944 1015 q 960 975 960 990 q 951 944 960 957 q 926 931 942 931 l 600 931 l 600 549 m 190 549 l 508 549 l 508 931 l 388 931 q 242 879 294 931 q 190 719 190 828 l 190 549 z "},"Ǽ":{"ha":993,"x_min":101,"x_max":960,"o":"m 474 1176 q 460 1172 467 1172 q 434 1184 444 1172 q 424 1211 424 1196 q 439 1236 424 1228 l 594 1321 q 606 1325 599 1325 q 630 1313 621 1325 q 639 1286 639 1300 q 622 1256 639 1264 l 474 1176 m 600 549 l 804 549 q 830 536 821 549 q 839 507 839 524 q 831 481 839 493 q 804 469 824 469 l 600 469 l 600 85 l 926 85 q 951 72 942 85 q 960 42 960 58 q 952 13 960 26 q 926 0 944 0 l 551 0 q 522 9 536 0 q 508 36 508 18 l 508 469 l 190 469 l 190 43 q 183 12 190 24 q 144 0 175 0 q 111 12 121 0 q 101 43 101 24 l 101 719 q 124 856 101 800 q 185 948 146 913 q 276 999 224 983 q 388 1015 328 1015 l 926 1015 q 952 1003 944 1015 q 960 975 960 990 q 951 944 960 957 q 926 931 942 931 l 600 931 l 600 549 m 190 549 l 508 549 l 508 931 l 388 931 q 242 879 294 931 q 190 719 190 828 l 190 549 z "},"Á":{"ha":750,"x_min":29,"x_max":721,"o":"m 82 0 q 47 10 64 0 q 29 39 29 21 q 31 49 29 46 l 321 992 q 342 1016 326 1008 q 375 1024 357 1024 q 410 1015 394 1024 q 431 992 425 1007 l 719 49 q 720 44 719 46 q 721 40 721 43 q 703 12 721 24 q 665 0 685 0 q 631 24 639 0 l 567 238 l 182 238 l 118 24 q 105 6 115 11 q 82 0 94 0 m 543 317 l 375 876 l 206 317 l 543 317 m 331 1178 q 317 1174 324 1174 q 291 1185 301 1174 q 281 1213 281 1197 q 296 1238 281 1229 l 451 1322 q 463 1326 456 1326 q 487 1314 478 1326 q 496 1288 496 1301 q 479 1257 496 1265 l 331 1178 z "},"Ă":{"ha":750,"x_min":29,"x_max":721,"o":"m 82 0 q 47 10 64 0 q 29 39 29 21 q 31 49 29 46 l 321 992 q 342 1016 326 1008 q 375 1024 357 1024 q 410 1015 394 1024 q 431 992 425 1007 l 719 49 q 720 44 719 46 q 721 40 721 43 q 703 12 721 24 q 665 0 685 0 q 631 24 639 0 l 567 238 l 182 238 l 118 24 q 105 6 115 11 q 82 0 94 0 m 543 317 l 375 876 l 206 317 l 543 317 m 536 1344 q 523 1282 536 1311 q 487 1231 510 1253 q 435 1195 464 1208 q 375 1182 406 1182 q 313 1195 343 1182 q 261 1231 283 1208 q 226 1282 239 1253 q 213 1344 213 1311 l 274 1344 q 304 1264 274 1296 q 375 1232 335 1232 q 445 1264 415 1232 q 475 1344 475 1296 l 536 1344 z "},"Â":{"ha":750,"x_min":29,"x_max":721,"o":"m 82 0 q 47 10 64 0 q 29 39 29 21 q 31 49 29 46 l 321 992 q 342 1016 326 1008 q 375 1024 357 1024 q 410 1015 394 1024 q 431 992 425 1007 l 719 49 q 720 44 719 46 q 721 40 721 43 q 703 12 721 24 q 665 0 685 0 q 631 24 639 0 l 567 238 l 182 238 l 118 24 q 105 6 115 11 q 82 0 94 0 m 543 317 l 375 876 l 206 317 l 543 317 m 229 1179 q 223 1176 226 1178 q 217 1175 219 1175 q 197 1185 206 1175 q 188 1211 188 1196 q 192 1228 188 1219 q 206 1242 196 1236 l 350 1319 q 374 1326 361 1326 q 397 1319 386 1326 l 542 1242 q 556 1228 551 1238 q 560 1210 560 1219 q 551 1186 560 1196 q 532 1176 543 1176 q 525 1178 529 1176 q 518 1181 521 1179 l 374 1257 l 229 1179 z "},"Ä":{"ha":750,"x_min":29,"x_max":721,"o":"m 82 0 q 47 10 64 0 q 29 39 29 21 q 31 49 29 46 l 321 992 q 342 1016 326 1008 q 375 1024 357 1024 q 410 1015 394 1024 q 431 992 425 1007 l 719 49 q 720 44 719 46 q 721 40 721 43 q 703 12 721 24 q 665 0 685 0 q 631 24 639 0 l 567 238 l 182 238 l 118 24 q 105 6 115 11 q 82 0 94 0 m 543 317 l 375 876 l 206 317 l 543 317 m 290 1278 q 326 1264 311 1278 q 340 1228 340 1250 q 326 1192 340 1207 q 290 1176 311 1176 q 253 1192 268 1176 q 239 1228 239 1207 q 253 1264 239 1250 q 290 1278 268 1278 m 461 1278 q 497 1264 483 1278 q 511 1228 511 1250 q 497 1192 511 1207 q 461 1176 483 1176 q 424 1192 439 1176 q 410 1228 410 1207 q 424 1264 410 1250 q 461 1278 439 1278 z "},"À":{"ha":750,"x_min":29,"x_max":721,"o":"m 82 0 q 47 10 64 0 q 29 39 29 21 q 31 49 29 46 l 321 992 q 342 1016 326 1008 q 375 1024 357 1024 q 410 1015 394 1024 q 431 992 425 1007 l 719 49 q 720 44 719 46 q 721 40 721 43 q 703 12 721 24 q 665 0 685 0 q 631 24 639 0 l 567 238 l 182 238 l 118 24 q 105 6 115 11 q 82 0 94 0 m 543 317 l 375 876 l 206 317 l 543 317 m 279 1257 q 261 1288 261 1265 q 270 1314 261 1301 q 294 1326 279 1326 q 307 1322 300 1326 l 461 1238 q 476 1213 476 1229 q 466 1185 476 1197 q 440 1174 456 1174 q 426 1178 432 1174 l 279 1257 z "},"Ā":{"ha":750,"x_min":29,"x_max":721,"o":"m 82 0 q 47 10 64 0 q 29 39 29 21 q 31 49 29 46 l 321 992 q 342 1016 326 1008 q 375 1024 357 1024 q 410 1015 394 1024 q 431 992 425 1007 l 719 49 q 720 44 719 46 q 721 40 721 43 q 703 12 721 24 q 665 0 685 0 q 631 24 639 0 l 567 238 l 182 238 l 118 24 q 105 6 115 11 q 82 0 94 0 m 543 317 l 375 876 l 206 317 l 543 317 m 190 1269 q 200 1295 190 1285 q 225 1306 210 1306 l 524 1306 q 547 1295 536 1306 q 558 1269 558 1285 q 547 1244 558 1254 q 524 1235 536 1235 l 225 1235 q 200 1244 210 1235 q 190 1269 190 1254 z "},"Ą":{"ha":750,"x_min":29,"x_max":721,"o":"m 674 -231 q 701 -256 701 -231 q 694 -273 701 -267 q 667 -279 686 -279 q 617 -274 642 -279 q 574 -256 593 -268 q 544 -223 556 -243 q 532 -175 532 -203 q 560 -71 532 -119 q 632 18 588 -22 q 631 21 632 19 q 631 24 631 22 l 567 238 l 182 238 l 118 24 q 105 6 115 11 q 82 0 94 0 q 47 10 64 0 q 29 39 29 21 q 31 49 29 46 l 321 992 q 342 1016 326 1008 q 375 1024 357 1024 q 410 1015 394 1024 q 431 992 425 1007 l 719 49 q 720 44 719 46 q 721 40 721 43 q 711 19 721 29 q 689 4 701 10 q 617 -75 646 -32 q 588 -168 588 -118 q 610 -216 588 -201 q 674 -231 633 -231 m 543 317 l 375 876 l 206 317 l 543 317 z "},"Å":{"ha":750,"x_min":29,"x_max":721,"o":"m 82 0 q 47 10 64 0 q 29 39 29 21 q 31 49 29 46 l 321 992 q 342 1016 326 1008 q 375 1024 357 1024 q 410 1015 394 1024 q 431 992 425 1007 l 719 49 q 720 44 719 46 q 721 40 721 43 q 703 12 721 24 q 665 0 685 0 q 631 24 639 0 l 567 238 l 182 238 l 118 24 q 105 6 115 11 q 82 0 94 0 m 543 317 l 375 876 l 206 317 l 543 317 m 374 1419 q 422 1409 399 1419 q 464 1381 446 1399 q 492 1339 482 1363 q 503 1290 503 1315 q 492 1240 503 1264 q 464 1198 482 1217 q 422 1168 446 1179 q 374 1157 399 1157 q 324 1168 347 1157 q 284 1198 301 1179 q 256 1240 267 1217 q 246 1290 246 1264 q 256 1339 246 1315 q 283 1380 265 1363 q 323 1408 300 1397 q 374 1419 346 1419 m 456 1290 q 431 1345 456 1319 q 375 1371 407 1371 q 315 1345 339 1371 q 292 1290 292 1319 q 316 1230 292 1257 q 375 1203 340 1203 q 431 1230 407 1203 q 456 1290 456 1257 z "},"Ã":{"ha":750,"x_min":29,"x_max":721,"o":"m 82 0 q 47 10 64 0 q 29 39 29 21 q 31 49 29 46 l 321 992 q 342 1016 326 1008 q 375 1024 357 1024 q 410 1015 394 1024 q 431 992 425 1007 l 719 49 q 720 44 719 46 q 721 40 721 43 q 703 12 721 24 q 665 0 685 0 q 631 24 639 0 l 567 238 l 182 238 l 118 24 q 105 6 115 11 q 82 0 94 0 m 543 317 l 375 876 l 206 317 l 543 317 m 289 1247 q 251 1240 267 1247 q 224 1225 235 1233 q 203 1210 213 1217 q 186 1203 194 1203 q 166 1215 172 1203 q 160 1238 160 1226 q 172 1272 160 1257 q 203 1297 185 1286 q 244 1312 222 1307 q 282 1317 265 1317 q 331 1309 308 1317 q 374 1293 353 1301 q 416 1277 394 1285 q 465 1269 438 1269 q 503 1276 489 1269 q 528 1290 518 1282 q 545 1303 538 1297 q 563 1310 553 1310 q 583 1299 576 1310 q 590 1278 590 1288 q 578 1242 590 1257 q 547 1217 565 1226 q 509 1203 529 1207 q 474 1199 489 1199 q 424 1206 446 1199 q 381 1223 401 1214 q 339 1240 361 1232 q 289 1247 317 1247 z "},"B":{"ha":747,"x_min":106,"x_max":683,"o":"m 106 981 q 119 1007 106 999 q 147 1015 132 1015 l 375 1015 q 485 1006 433 1015 q 575 971 536 997 q 636 899 614 944 q 658 779 658 853 q 626 633 658 692 q 540 550 593 574 q 599 518 572 538 q 644 471 625 499 q 673 403 663 443 q 683 311 683 364 l 683 286 q 662 152 683 207 q 603 64 640 97 q 517 15 567 31 q 408 0 467 0 l 147 0 q 117 10 128 0 q 106 35 106 21 l 106 981 m 397 85 q 540 133 489 85 q 592 290 592 182 l 592 314 q 540 467 592 422 q 397 511 489 511 l 196 511 l 196 85 l 397 85 m 196 590 l 378 590 q 520 630 474 590 q 567 769 567 669 q 552 848 567 817 q 512 898 538 879 q 451 924 486 917 q 372 931 415 931 l 196 931 l 196 590 z "},"C":{"ha":726,"x_min":94,"x_max":672,"o":"m 581 763 q 572 814 579 785 q 544 869 565 843 q 486 913 524 894 q 386 931 449 931 q 238 879 289 931 q 186 719 186 828 l 186 289 q 238 128 186 179 q 392 76 290 76 q 490 94 454 76 q 545 137 526 111 q 571 192 564 163 q 581 247 578 222 q 626 283 585 283 q 661 272 650 283 q 672 226 672 261 q 653 137 672 179 q 596 62 633 94 q 504 10 558 29 q 382 -8 450 -8 q 271 8 324 -8 q 179 59 218 24 q 117 151 140 94 q 94 289 94 207 l 94 719 q 118 856 94 800 q 181 948 142 913 q 274 999 221 983 q 386 1015 326 1015 q 508 997 454 1015 q 597 946 561 978 q 653 872 633 914 q 672 783 672 831 q 661 738 672 749 q 626 728 650 728 q 592 738 603 728 q 581 763 582 747 z "},"\r":{"ha":0,"x_min":0,"x_max":0,"o":""},"Ć":{"ha":726,"x_min":94,"x_max":672,"o":"m 335 1178 q 321 1174 328 1174 q 295 1185 306 1174 q 285 1213 285 1197 q 300 1238 285 1229 l 456 1322 q 467 1326 460 1326 q 491 1314 482 1326 q 500 1288 500 1301 q 483 1257 500 1265 l 335 1178 m 581 763 q 572 814 579 785 q 544 869 565 843 q 486 913 524 894 q 386 931 449 931 q 238 879 289 931 q 186 719 186 828 l 186 289 q 238 128 186 179 q 392 76 290 76 q 490 94 454 76 q 545 137 526 111 q 571 192 564 163 q 581 247 578 222 q 626 283 585 283 q 661 272 650 283 q 672 226 672 261 q 653 137 672 179 q 596 62 633 94 q 504 10 558 29 q 382 -8 450 -8 q 271 8 324 -8 q 179 59 218 24 q 117 151 140 94 q 94 289 94 207 l 94 719 q 118 856 94 800 q 181 948 142 913 q 274 999 221 983 q 386 1015 326 1015 q 508 997 454 1015 q 597 946 561 978 q 653 872 633 914 q 672 783 672 831 q 661 738 672 749 q 626 728 650 728 q 592 738 603 728 q 581 763 582 747 z "},"Č":{"ha":726,"x_min":94,"x_max":672,"o":"m 382 1232 l 519 1360 q 540 1368 528 1368 q 559 1358 551 1368 q 567 1338 567 1349 q 550 1306 567 1319 l 410 1181 q 382 1167 393 1167 q 354 1181 368 1167 l 214 1306 q 196 1338 196 1319 q 203 1358 196 1349 q 222 1368 211 1368 q 243 1360 235 1368 l 382 1232 m 581 763 q 572 814 579 785 q 544 869 565 843 q 486 913 524 894 q 386 931 449 931 q 238 879 289 931 q 186 719 186 828 l 186 289 q 238 128 186 179 q 392 76 290 76 q 490 94 454 76 q 545 137 526 111 q 571 192 564 163 q 581 247 578 222 q 626 283 585 283 q 661 272 650 283 q 672 226 672 261 q 653 137 672 179 q 596 62 633 94 q 504 10 558 29 q 382 -8 450 -8 q 271 8 324 -8 q 179 59 218 24 q 117 151 140 94 q 94 289 94 207 l 94 719 q 118 856 94 800 q 181 948 142 913 q 274 999 221 983 q 386 1015 326 1015 q 508 997 454 1015 q 597 946 561 978 q 653 872 633 914 q 672 783 672 831 q 661 738 672 749 q 626 728 650 728 q 592 738 603 728 q 581 763 582 747 z "},"Ç":{"ha":726,"x_min":94,"x_max":672,"o":"m 581 763 q 572 814 579 785 q 544 869 565 843 q 486 913 524 894 q 386 931 449 931 q 238 879 289 931 q 186 719 186 828 l 186 289 q 238 128 186 179 q 392 76 290 76 q 490 94 454 76 q 545 137 526 111 q 571 192 564 163 q 581 247 578 222 q 626 283 585 283 q 661 272 650 283 q 672 226 672 261 q 656 144 672 183 q 610 74 640 106 q 534 22 579 43 q 432 -4 489 1 l 411 -85 q 513 -117 482 -87 q 544 -185 544 -147 q 537 -223 544 -204 q 514 -257 529 -242 q 476 -282 499 -272 q 421 -292 453 -292 q 388 -290 407 -292 q 353 -283 369 -287 q 324 -272 336 -279 q 313 -256 313 -265 q 318 -235 313 -249 q 335 -222 324 -222 q 360 -232 343 -222 q 413 -242 378 -242 q 469 -226 453 -242 q 486 -187 486 -210 q 463 -146 486 -160 q 399 -129 439 -132 l 346 -125 l 376 -8 q 267 9 318 -7 q 178 60 217 25 q 117 152 139 96 q 94 289 94 208 l 94 719 q 118 856 94 800 q 181 948 142 913 q 274 999 221 983 q 386 1015 326 1015 q 508 997 454 1015 q 597 946 561 978 q 653 872 633 914 q 672 783 672 831 q 661 738 672 749 q 626 728 650 728 q 592 738 603 728 q 581 763 582 747 z "},"Ĉ":{"ha":726,"x_min":94,"x_max":672,"o":"m 239 1179 q 233 1176 236 1178 q 226 1175 229 1175 q 206 1185 215 1175 q 197 1211 197 1196 q 201 1228 197 1219 q 215 1242 206 1236 l 360 1319 q 383 1326 371 1326 q 407 1319 396 1326 l 551 1242 q 565 1228 561 1238 q 569 1210 569 1219 q 561 1186 569 1196 q 542 1176 553 1176 q 535 1178 539 1176 q 528 1181 531 1179 l 383 1257 l 239 1179 m 581 763 q 572 814 579 785 q 544 869 565 843 q 486 913 524 894 q 386 931 449 931 q 238 879 289 931 q 186 719 186 828 l 186 289 q 238 128 186 179 q 392 76 290 76 q 490 94 454 76 q 545 137 526 111 q 571 192 564 163 q 581 247 578 222 q 626 283 585 283 q 661 272 650 283 q 672 226 672 261 q 653 137 672 179 q 596 62 633 94 q 504 10 558 29 q 382 -8 450 -8 q 271 8 324 -8 q 179 59 218 24 q 117 151 140 94 q 94 289 94 207 l 94 719 q 118 856 94 800 q 181 948 142 913 q 274 999 221 983 q 386 1015 326 1015 q 508 997 454 1015 q 597 946 561 978 q 653 872 633 914 q 672 783 672 831 q 661 738 672 749 q 626 728 650 728 q 592 738 603 728 q 581 763 582 747 z "},"Ċ":{"ha":726,"x_min":94,"x_max":672,"o":"m 581 763 q 572 814 579 785 q 544 869 565 843 q 486 913 524 894 q 386 931 449 931 q 238 879 289 931 q 186 719 186 828 l 186 289 q 238 128 186 179 q 392 76 290 76 q 490 94 454 76 q 545 137 526 111 q 571 192 564 163 q 581 247 578 222 q 626 283 585 283 q 661 272 650 283 q 672 226 672 261 q 653 137 672 179 q 596 62 633 94 q 504 10 558 29 q 382 -8 450 -8 q 271 8 324 -8 q 179 59 218 24 q 117 151 140 94 q 94 289 94 207 l 94 719 q 118 856 94 800 q 181 948 142 913 q 274 999 221 983 q 386 1015 326 1015 q 508 997 454 1015 q 597 946 561 978 q 653 872 633 914 q 672 783 672 831 q 661 738 672 749 q 626 728 650 728 q 592 738 603 728 q 581 763 582 747 m 385 1278 q 420 1264 406 1278 q 435 1228 435 1250 q 420 1192 435 1207 q 385 1176 406 1176 q 348 1192 363 1176 q 333 1228 333 1207 q 348 1264 333 1250 q 385 1278 363 1278 z "},"D":{"ha":778,"x_min":106,"x_max":683,"o":"m 393 1015 q 507 999 454 1015 q 599 948 560 983 q 661 856 639 913 q 683 719 683 800 l 683 297 q 661 159 683 215 q 599 67 639 103 q 507 16 560 32 q 393 0 454 0 l 147 0 q 117 10 128 0 q 106 35 106 21 l 106 982 q 117 1006 106 996 q 147 1015 128 1015 l 393 1015 m 197 931 l 197 85 l 393 85 q 539 137 486 85 q 592 297 592 189 l 592 719 q 539 879 592 828 q 393 931 486 931 l 197 931 z "},"Ď":{"ha":778,"x_min":106,"x_max":683,"o":"m 385 1232 l 522 1360 q 543 1368 531 1368 q 562 1358 554 1368 q 569 1338 569 1349 q 553 1306 569 1319 l 413 1181 q 385 1167 396 1167 q 357 1181 371 1167 l 217 1306 q 199 1338 199 1319 q 206 1358 199 1349 q 225 1368 214 1368 q 246 1360 238 1368 l 385 1232 m 393 1015 q 507 999 454 1015 q 599 948 560 983 q 661 856 639 913 q 683 719 683 800 l 683 297 q 661 159 683 215 q 599 67 639 103 q 507 16 560 32 q 393 0 454 0 l 147 0 q 117 10 128 0 q 106 35 106 21 l 106 982 q 117 1006 106 996 q 147 1015 128 1015 l 393 1015 m 197 931 l 197 85 l 393 85 q 539 137 486 85 q 592 297 592 189 l 592 719 q 539 879 592 828 q 393 931 486 931 l 197 931 z "},"Đ":{"ha":790,"x_min":-1,"x_max":696,"o":"m 406 1015 q 519 999 467 1015 q 612 948 572 983 q 674 856 651 913 q 696 719 696 800 l 696 297 q 674 159 696 215 q 612 67 651 103 q 519 16 572 32 q 406 0 467 0 l 160 0 q 129 10 140 0 q 118 35 118 21 l 118 496 l 31 496 q 7 507 15 496 q -1 533 -1 518 q 7 560 -1 549 q 31 571 15 571 l 118 571 l 118 982 q 129 1006 118 996 q 160 1015 140 1015 l 406 1015 m 210 931 l 210 571 l 367 571 q 390 560 381 571 q 399 533 399 549 q 390 507 399 518 q 367 496 381 496 l 210 496 l 210 85 l 406 85 q 551 137 499 85 q 604 297 604 189 l 604 719 q 551 879 604 828 q 406 931 499 931 l 210 931 z "},"∆":{"ha":715,"x_min":31,"x_max":682,"o":"m 678 54 q 682 35 682 42 q 640 0 682 0 l 71 0 q 31 35 31 0 q 31 44 31 40 q 33 54 31 47 l 301 989 q 357 1024 313 1024 q 413 989 401 1024 l 678 54 m 575 85 l 357 881 l 136 85 l 575 85 z "},"E":{"ha":706,"x_min":106,"x_max":676,"o":"m 197 549 l 415 549 q 441 536 432 549 q 450 507 450 524 q 442 481 450 493 q 415 469 435 469 l 197 469 l 197 85 l 642 85 q 667 72 658 85 q 676 42 676 58 q 669 13 676 26 q 642 0 661 0 l 147 0 q 119 9 132 0 q 106 36 106 18 l 106 981 q 119 1007 106 999 q 147 1015 132 1015 l 642 1015 q 669 1003 661 1015 q 676 975 676 990 q 667 944 676 957 q 642 931 658 931 l 197 931 l 197 549 z "},"É":{"ha":706,"x_min":106,"x_max":676,"o":"m 342 1178 q 328 1174 335 1174 q 302 1185 313 1174 q 292 1213 292 1197 q 307 1238 292 1229 l 463 1322 q 474 1326 467 1326 q 498 1314 489 1326 q 507 1288 507 1301 q 490 1257 507 1265 l 342 1178 m 197 549 l 415 549 q 441 536 432 549 q 450 507 450 524 q 442 481 450 493 q 415 469 435 469 l 197 469 l 197 85 l 642 85 q 667 72 658 85 q 676 42 676 58 q 669 13 676 26 q 642 0 661 0 l 147 0 q 119 9 132 0 q 106 36 106 18 l 106 981 q 119 1007 106 999 q 147 1015 132 1015 l 642 1015 q 669 1003 661 1015 q 676 975 676 990 q 667 944 676 957 q 642 931 658 931 l 197 931 l 197 549 z "},"Ĕ":{"ha":706,"x_min":106,"x_max":676,"o":"m 197 549 l 415 549 q 441 536 432 549 q 450 507 450 524 q 442 481 450 493 q 415 469 435 469 l 197 469 l 197 85 l 642 85 q 667 72 658 85 q 676 42 676 58 q 669 13 676 26 q 642 0 661 0 l 147 0 q 119 9 132 0 q 106 36 106 18 l 106 981 q 119 1007 106 999 q 147 1015 132 1015 l 642 1015 q 669 1003 661 1015 q 676 975 676 990 q 667 944 676 957 q 642 931 658 931 l 197 931 l 197 549 m 551 1344 q 538 1282 551 1311 q 502 1231 525 1253 q 450 1195 479 1208 q 390 1182 421 1182 q 328 1195 358 1182 q 276 1231 299 1208 q 241 1282 254 1253 q 228 1344 228 1311 l 289 1344 q 319 1264 289 1296 q 390 1232 350 1232 q 460 1264 431 1232 q 490 1344 490 1296 l 551 1344 z "},"Ě":{"ha":706,"x_min":106,"x_max":676,"o":"m 389 1232 l 526 1360 q 547 1368 535 1368 q 566 1358 558 1368 q 574 1338 574 1349 q 557 1306 574 1319 l 417 1181 q 389 1167 400 1167 q 361 1181 375 1167 l 221 1306 q 203 1338 203 1319 q 210 1358 203 1349 q 229 1368 218 1368 q 250 1360 242 1368 l 389 1232 m 197 549 l 415 549 q 441 536 432 549 q 450 507 450 524 q 442 481 450 493 q 415 469 435 469 l 197 469 l 197 85 l 642 85 q 667 72 658 85 q 676 42 676 58 q 669 13 676 26 q 642 0 661 0 l 147 0 q 119 9 132 0 q 106 36 106 18 l 106 981 q 119 1007 106 999 q 147 1015 132 1015 l 642 1015 q 669 1003 661 1015 q 676 975 676 990 q 667 944 676 957 q 642 931 658 931 l 197 931 l 197 549 z "},"Ê":{"ha":706,"x_min":106,"x_max":676,"o":"m 249 1179 q 242 1176 246 1178 q 236 1175 239 1175 q 216 1185 225 1175 q 207 1211 207 1196 q 211 1228 207 1219 q 225 1242 215 1236 l 369 1319 q 393 1326 381 1326 q 417 1319 406 1326 l 561 1242 q 575 1228 571 1238 q 579 1210 579 1219 q 571 1186 579 1196 q 551 1176 563 1176 q 544 1178 549 1176 q 538 1181 540 1179 l 393 1257 l 249 1179 m 197 549 l 415 549 q 441 536 432 549 q 450 507 450 524 q 442 481 450 493 q 415 469 435 469 l 197 469 l 197 85 l 642 85 q 667 72 658 85 q 676 42 676 58 q 669 13 676 26 q 642 0 661 0 l 147 0 q 119 9 132 0 q 106 36 106 18 l 106 981 q 119 1007 106 999 q 147 1015 132 1015 l 642 1015 q 669 1003 661 1015 q 676 975 676 990 q 667 944 676 957 q 642 931 658 931 l 197 931 l 197 549 z "},"Ë":{"ha":706,"x_min":106,"x_max":676,"o":"m 307 1278 q 342 1264 328 1278 q 357 1228 357 1250 q 342 1192 357 1207 q 307 1176 328 1176 q 270 1192 285 1176 q 256 1228 256 1207 q 270 1264 256 1250 q 307 1278 285 1278 m 478 1278 q 514 1264 500 1278 q 528 1228 528 1250 q 514 1192 528 1207 q 478 1176 500 1176 q 441 1192 456 1176 q 426 1228 426 1207 q 441 1264 426 1250 q 478 1278 456 1278 m 197 549 l 415 549 q 441 536 432 549 q 450 507 450 524 q 442 481 450 493 q 415 469 435 469 l 197 469 l 197 85 l 642 85 q 667 72 658 85 q 676 42 676 58 q 669 13 676 26 q 642 0 661 0 l 147 0 q 119 9 132 0 q 106 36 106 18 l 106 981 q 119 1007 106 999 q 147 1015 132 1015 l 642 1015 q 669 1003 661 1015 q 676 975 676 990 q 667 944 676 957 q 642 931 658 931 l 197 931 l 197 549 z "},"Ė":{"ha":706,"x_min":106,"x_max":676,"o":"m 197 549 l 415 549 q 441 536 432 549 q 450 507 450 524 q 442 481 450 493 q 415 469 435 469 l 197 469 l 197 85 l 642 85 q 667 72 658 85 q 676 42 676 58 q 669 13 676 26 q 642 0 661 0 l 147 0 q 119 9 132 0 q 106 36 106 18 l 106 981 q 119 1007 106 999 q 147 1015 132 1015 l 642 1015 q 669 1003 661 1015 q 676 975 676 990 q 667 944 676 957 q 642 931 658 931 l 197 931 l 197 549 m 396 1278 q 431 1264 417 1278 q 446 1228 446 1250 q 431 1192 446 1207 q 396 1176 417 1176 q 359 1192 374 1176 q 344 1228 344 1207 q 359 1264 344 1250 q 396 1278 374 1278 z "},"È":{"ha":706,"x_min":106,"x_max":676,"o":"m 197 549 l 415 549 q 441 536 432 549 q 450 507 450 524 q 442 481 450 493 q 415 469 435 469 l 197 469 l 197 85 l 642 85 q 667 72 658 85 q 676 42 676 58 q 669 13 676 26 q 642 0 661 0 l 147 0 q 119 9 132 0 q 106 36 106 18 l 106 981 q 119 1007 106 999 q 147 1015 132 1015 l 642 1015 q 669 1003 661 1015 q 676 975 676 990 q 667 944 676 957 q 642 931 658 931 l 197 931 l 197 549 m 299 1257 q 281 1288 281 1265 q 290 1314 281 1301 q 314 1326 299 1326 q 326 1322 319 1326 l 481 1238 q 496 1213 496 1229 q 485 1185 496 1197 q 460 1174 475 1174 q 446 1178 451 1174 l 299 1257 z "},"Ē":{"ha":706,"x_min":106,"x_max":676,"o":"m 197 549 l 415 549 q 441 536 432 549 q 450 507 450 524 q 442 481 450 493 q 415 469 435 469 l 197 469 l 197 85 l 642 85 q 667 72 658 85 q 676 42 676 58 q 669 13 676 26 q 642 0 661 0 l 147 0 q 119 9 132 0 q 106 36 106 18 l 106 981 q 119 1007 106 999 q 147 1015 132 1015 l 642 1015 q 669 1003 661 1015 q 676 975 676 990 q 667 944 676 957 q 642 931 658 931 l 197 931 l 197 549 m 208 1269 q 218 1295 208 1285 q 243 1306 228 1306 l 542 1306 q 565 1295 554 1306 q 576 1269 576 1285 q 565 1244 576 1254 q 542 1235 554 1235 l 243 1235 q 218 1244 228 1235 q 208 1269 208 1254 z "},"Ŋ":{"ha":796,"x_min":106,"x_max":690,"o":"m 500 -240 q 553 -226 533 -240 q 583 -189 572 -212 q 597 -132 593 -165 q 600 -60 600 -99 l 600 3 q 597 24 600 13 q 583 53 593 35 l 197 804 l 197 36 q 183 9 197 18 q 151 0 168 0 q 119 9 133 0 q 106 36 106 18 l 106 981 q 119 1008 106 1000 q 151 1015 133 1015 q 193 997 176 1015 q 224 951 210 978 l 599 213 l 599 982 q 613 1008 599 1000 q 644 1015 626 1015 q 676 1008 661 1015 q 690 982 690 1000 l 690 -60 q 680 -166 690 -118 q 648 -249 669 -214 q 592 -303 626 -283 q 508 -322 557 -322 q 472 -310 483 -322 q 461 -282 461 -297 q 472 -251 461 -262 q 500 -240 483 -240 z "},"Ę":{"ha":706,"x_min":106,"x_max":676,"o":"m 197 549 l 415 549 q 441 536 432 549 q 450 507 450 524 q 442 481 450 493 q 415 469 435 469 l 197 469 l 197 85 l 642 85 q 667 72 658 85 q 676 42 676 58 q 672 19 676 31 q 656 3 667 8 q 585 -76 614 -33 q 557 -168 557 -119 q 580 -216 557 -201 q 643 -231 603 -231 q 671 -256 671 -231 q 663 -273 671 -267 q 636 -279 656 -279 q 587 -274 611 -279 q 544 -256 563 -268 q 513 -223 525 -243 q 501 -175 501 -203 q 524 -82 501 -126 q 582 0 546 -37 l 147 0 q 119 9 132 0 q 106 36 106 18 l 106 981 q 119 1007 106 999 q 147 1015 132 1015 l 642 1015 q 669 1003 661 1015 q 676 975 676 990 q 667 944 676 957 q 642 931 658 931 l 197 931 l 197 549 z "},"Ð":{"ha":790,"x_min":-1,"x_max":696,"o":"m 406 1015 q 519 999 467 1015 q 612 948 572 983 q 674 856 651 913 q 696 719 696 800 l 696 297 q 674 159 696 215 q 612 67 651 103 q 519 16 572 32 q 406 0 467 0 l 160 0 q 129 10 140 0 q 118 35 118 21 l 118 496 l 31 496 q 7 507 15 496 q -1 533 -1 518 q 7 560 -1 549 q 31 571 15 571 l 118 571 l 118 982 q 129 1006 118 996 q 160 1015 140 1015 l 406 1015 m 210 931 l 210 571 l 367 571 q 390 560 381 571 q 399 533 399 549 q 390 507 399 518 q 367 496 381 496 l 210 496 l 210 85 l 406 85 q 551 137 499 85 q 604 297 604 189 l 604 719 q 551 879 604 828 q 406 931 499 931 l 210 931 z "},"€":{"ha":808,"x_min":44,"x_max":743,"o":"m 257 282 q 306 132 257 188 q 456 76 354 76 q 598 122 544 76 q 651 247 651 167 q 697 282 653 282 q 731 272 719 282 q 743 236 743 263 q 722 138 743 183 q 664 60 701 93 q 573 10 626 28 q 453 -8 519 -8 q 336 9 389 -8 q 245 63 283 26 q 186 153 207 99 q 165 282 165 207 l 165 350 l 79 350 q 54 360 64 350 q 44 386 44 371 q 54 413 44 401 q 79 424 64 424 l 165 424 l 165 557 l 79 557 q 54 567 64 557 q 44 593 44 578 q 54 619 44 608 q 79 631 64 631 l 165 631 l 165 719 q 188 856 165 800 q 249 948 210 913 q 340 999 288 983 q 453 1015 392 1015 q 573 997 519 1015 q 664 947 626 979 q 722 871 701 915 q 743 775 743 826 q 731 739 743 749 q 697 729 719 729 q 651 763 651 729 q 599 885 651 840 q 454 931 546 931 q 309 879 361 931 q 257 719 257 828 l 257 631 l 492 631 q 517 619 506 631 q 528 593 528 608 q 517 567 528 578 q 492 557 506 557 l 257 557 l 257 424 l 492 424 q 517 413 506 424 q 528 386 528 401 q 517 360 528 371 q 492 350 506 350 l 257 350 l 257 282 z "},"F":{"ha":686,"x_min":106,"x_max":674,"o":"m 106 981 q 119 1007 106 999 q 147 1015 132 1015 l 639 1015 q 665 1003 657 1015 q 674 975 674 990 q 665 944 674 957 q 639 931 656 931 l 197 931 l 197 549 l 417 549 q 441 536 432 549 q 450 507 450 524 q 442 481 450 493 q 417 469 435 469 l 197 469 l 197 35 q 183 8 197 17 q 151 0 168 0 q 119 8 133 0 q 106 35 106 17 l 106 981 z "},"G":{"ha":751,"x_min":94,"x_max":672,"o":"m 581 763 q 523 887 571 843 q 383 931 475 931 q 238 879 290 931 q 186 719 186 828 l 186 289 q 238 128 186 181 q 383 76 290 76 q 528 128 476 76 q 581 289 581 181 l 581 454 l 394 454 q 370 467 379 454 q 361 494 361 479 q 370 522 361 510 q 394 533 379 533 l 639 533 q 664 523 656 533 q 672 497 672 513 l 672 289 q 650 151 672 207 q 589 59 628 94 q 497 8 550 24 q 383 -8 444 -8 q 269 8 322 -8 q 178 59 217 24 q 117 151 139 94 q 94 289 94 207 l 94 719 q 117 856 94 800 q 178 948 139 913 q 269 999 217 983 q 382 1015 321 1015 q 502 997 449 1015 q 594 947 556 979 q 652 871 632 915 q 672 775 672 826 q 660 738 672 747 q 626 728 647 728 q 595 735 608 728 q 581 763 582 743 z "},"Ğ":{"ha":751,"x_min":94,"x_max":672,"o":"m 581 763 q 523 887 571 843 q 383 931 475 931 q 238 879 290 931 q 186 719 186 828 l 186 289 q 238 128 186 181 q 383 76 290 76 q 528 128 476 76 q 581 289 581 181 l 581 454 l 394 454 q 370 467 379 454 q 361 494 361 479 q 370 522 361 510 q 394 533 379 533 l 639 533 q 664 523 656 533 q 672 497 672 513 l 672 289 q 650 151 672 207 q 589 59 628 94 q 497 8 550 24 q 383 -8 444 -8 q 269 8 322 -8 q 178 59 217 24 q 117 151 139 94 q 94 289 94 207 l 94 719 q 117 856 94 800 q 178 948 139 913 q 269 999 217 983 q 382 1015 321 1015 q 502 997 449 1015 q 594 947 556 979 q 652 871 632 915 q 672 775 672 826 q 660 738 672 747 q 626 728 647 728 q 595 735 608 728 q 581 763 582 743 m 544 1344 q 531 1282 544 1311 q 495 1231 518 1253 q 443 1195 472 1208 q 383 1182 414 1182 q 322 1195 351 1182 q 269 1231 292 1208 q 234 1282 247 1253 q 221 1344 221 1311 l 282 1344 q 313 1264 282 1296 q 383 1232 343 1232 q 453 1264 424 1232 q 483 1344 483 1296 l 544 1344 z "},"Ĝ":{"ha":751,"x_min":94,"x_max":672,"o":"m 233 1179 q 227 1176 231 1178 q 221 1175 224 1175 q 201 1185 210 1175 q 192 1211 192 1196 q 196 1228 192 1219 q 210 1242 200 1236 l 354 1319 q 378 1326 365 1326 q 401 1319 390 1326 l 546 1242 q 560 1228 556 1238 q 564 1210 564 1219 q 556 1186 564 1196 q 536 1176 547 1176 q 529 1178 533 1176 q 522 1181 525 1179 l 378 1257 l 233 1179 m 581 763 q 523 887 571 843 q 383 931 475 931 q 238 879 290 931 q 186 719 186 828 l 186 289 q 238 128 186 181 q 383 76 290 76 q 528 128 476 76 q 581 289 581 181 l 581 454 l 394 454 q 370 467 379 454 q 361 494 361 479 q 370 522 361 510 q 394 533 379 533 l 639 533 q 664 523 656 533 q 672 497 672 513 l 672 289 q 650 151 672 207 q 589 59 628 94 q 497 8 550 24 q 383 -8 444 -8 q 269 8 322 -8 q 178 59 217 24 q 117 151 139 94 q 94 289 94 207 l 94 719 q 117 856 94 800 q 178 948 139 913 q 269 999 217 983 q 382 1015 321 1015 q 502 997 449 1015 q 594 947 556 979 q 652 871 632 915 q 672 775 672 826 q 660 738 672 747 q 626 728 647 728 q 595 735 608 728 q 581 763 582 743 z "},"Ģ":{"ha":751,"x_min":94,"x_max":672,"o":"m 324 -215 q 308 -219 315 -219 q 283 -208 293 -219 q 274 -181 274 -196 q 289 -156 274 -164 l 443 -69 q 456 -67 451 -67 q 480 -79 471 -67 q 489 -106 489 -92 q 471 -136 489 -126 l 324 -215 m 581 763 q 523 887 571 843 q 383 931 475 931 q 238 879 290 931 q 186 719 186 828 l 186 289 q 238 128 186 181 q 383 76 290 76 q 528 128 476 76 q 581 289 581 181 l 581 454 l 394 454 q 370 467 379 454 q 361 494 361 479 q 370 522 361 510 q 394 533 379 533 l 639 533 q 664 523 656 533 q 672 497 672 513 l 672 289 q 650 151 672 207 q 589 59 628 94 q 497 8 550 24 q 383 -8 444 -8 q 269 8 322 -8 q 178 59 217 24 q 117 151 139 94 q 94 289 94 207 l 94 719 q 117 856 94 800 q 178 948 139 913 q 269 999 217 983 q 382 1015 321 1015 q 502 997 449 1015 q 594 947 556 979 q 652 871 632 915 q 672 775 672 826 q 660 738 672 747 q 626 728 647 728 q 595 735 608 728 q 581 763 582 743 z "},"Ġ":{"ha":751,"x_min":94,"x_max":672,"o":"m 581 763 q 523 887 571 843 q 383 931 475 931 q 238 879 290 931 q 186 719 186 828 l 186 289 q 238 128 186 181 q 383 76 290 76 q 528 128 476 76 q 581 289 581 181 l 581 454 l 394 454 q 370 467 379 454 q 361 494 361 479 q 370 522 361 510 q 394 533 379 533 l 639 533 q 664 523 656 533 q 672 497 672 513 l 672 289 q 650 151 672 207 q 589 59 628 94 q 497 8 550 24 q 383 -8 444 -8 q 269 8 322 -8 q 178 59 217 24 q 117 151 139 94 q 94 289 94 207 l 94 719 q 117 856 94 800 q 178 948 139 913 q 269 999 217 983 q 382 1015 321 1015 q 502 997 449 1015 q 594 947 556 979 q 652 871 632 915 q 672 775 672 826 q 660 738 672 747 q 626 728 647 728 q 595 735 608 728 q 581 763 582 743 m 383 1278 q 419 1264 404 1278 q 433 1228 433 1250 q 419 1192 433 1207 q 383 1176 404 1176 q 347 1192 361 1176 q 332 1228 332 1207 q 347 1264 332 1250 q 383 1278 361 1278 z "},"H":{"ha":796,"x_min":106,"x_max":690,"o":"m 599 488 l 197 488 l 197 36 q 183 9 197 18 q 151 0 168 0 q 119 9 133 0 q 106 36 106 18 l 106 982 q 119 1008 106 1000 q 151 1015 133 1015 q 183 1008 168 1015 q 197 982 197 1000 l 197 567 l 599 567 l 599 982 q 613 1008 599 1000 q 644 1015 626 1015 q 676 1008 661 1015 q 690 982 690 1000 l 690 36 q 676 9 690 18 q 644 0 661 0 q 613 9 626 0 q 599 36 599 18 l 599 488 z "},"Ħ":{"ha":796,"x_min":26,"x_max":768,"o":"m 599 488 l 197 488 l 197 36 q 183 9 197 18 q 151 0 168 0 q 119 9 133 0 q 106 36 106 18 l 106 750 l 57 750 q 34 760 42 750 q 26 785 26 771 q 34 810 26 800 q 57 821 42 821 l 106 821 l 106 982 q 119 1008 106 1000 q 151 1015 133 1015 q 183 1008 168 1015 q 197 982 197 1000 l 197 821 l 599 821 l 599 982 q 613 1008 599 1000 q 644 1015 626 1015 q 676 1008 661 1015 q 690 982 690 1000 l 690 821 l 736 821 q 759 810 750 821 q 768 785 768 800 q 759 760 768 769 q 736 750 750 750 l 690 750 l 690 36 q 676 9 690 18 q 644 0 661 0 q 613 9 626 0 q 599 36 599 18 l 599 488 m 599 567 l 599 750 l 197 750 l 197 567 l 599 567 z "},"Ĥ":{"ha":796,"x_min":106,"x_max":690,"o":"m 254 1179 q 248 1176 251 1178 q 242 1175 244 1175 q 222 1185 231 1175 q 213 1211 213 1196 q 217 1228 213 1219 q 231 1242 221 1236 l 375 1319 q 399 1326 386 1326 q 422 1319 411 1326 l 567 1242 q 581 1228 576 1238 q 585 1210 585 1219 q 576 1186 585 1196 q 557 1176 568 1176 q 550 1178 554 1176 q 543 1181 546 1179 l 399 1257 l 254 1179 m 599 488 l 197 488 l 197 36 q 183 9 197 18 q 151 0 168 0 q 119 9 133 0 q 106 36 106 18 l 106 982 q 119 1008 106 1000 q 151 1015 133 1015 q 183 1008 168 1015 q 197 982 197 1000 l 197 567 l 599 567 l 599 982 q 613 1008 599 1000 q 644 1015 626 1015 q 676 1008 661 1015 q 690 982 690 1000 l 690 36 q 676 9 690 18 q 644 0 661 0 q 613 9 626 0 q 599 36 599 18 l 599 488 z "},"I":{"ha":303,"x_min":106,"x_max":197,"o":"m 106 982 q 119 1008 106 1000 q 151 1015 133 1015 q 183 1008 168 1015 q 197 982 197 1000 l 197 36 q 183 9 197 18 q 151 0 168 0 q 119 9 133 0 q 106 36 106 18 l 106 982 z "},"Ĳ":{"ha":1007,"x_min":106,"x_max":906,"o":"m 106 982 q 119 1008 106 1000 q 151 1015 133 1015 q 183 1008 168 1015 q 197 982 197 1000 l 197 36 q 183 9 197 18 q 151 0 168 0 q 119 9 133 0 q 106 36 106 18 l 106 982 m 618 931 q 592 944 601 931 q 583 975 583 957 q 592 1003 583 990 q 618 1015 600 1015 l 863 1015 q 892 1007 879 1015 q 906 981 906 999 l 906 289 q 883 151 906 207 q 822 59 861 94 q 731 8 783 24 q 619 -8 679 -8 q 499 10 553 -8 q 407 60 444 28 q 349 138 369 93 q 328 236 328 183 q 340 274 328 264 q 372 283 351 283 q 405 275 390 283 q 419 247 419 267 q 473 122 419 168 q 617 76 526 76 q 762 128 710 76 q 814 289 814 181 l 814 931 l 618 931 z "},"Í":{"ha":303,"x_min":46,"x_max":261,"o":"m 106 982 q 119 1008 106 1000 q 151 1015 133 1015 q 183 1008 168 1015 q 197 982 197 1000 l 197 36 q 183 9 197 18 q 151 0 168 0 q 119 9 133 0 q 106 36 106 18 l 106 982 m 96 1178 q 82 1174 89 1174 q 56 1185 67 1174 q 46 1213 46 1197 q 61 1238 46 1229 l 217 1322 q 228 1326 221 1326 q 252 1314 243 1326 q 261 1288 261 1301 q 244 1257 261 1265 l 96 1178 z "},"Ĭ":{"ha":303,"x_min":-11,"x_max":313,"o":"m 106 982 q 119 1008 106 1000 q 151 1015 133 1015 q 183 1008 168 1015 q 197 982 197 1000 l 197 36 q 183 9 197 18 q 151 0 168 0 q 119 9 133 0 q 106 36 106 18 l 106 982 m 313 1344 q 299 1282 313 1311 q 263 1231 286 1253 q 211 1195 240 1208 q 151 1182 182 1182 q 90 1195 119 1182 q 38 1231 60 1208 q 2 1282 15 1253 q -11 1344 -11 1311 l 50 1344 q 81 1264 50 1296 q 151 1232 111 1232 q 222 1264 192 1232 q 251 1344 251 1296 l 313 1344 z "},"Î":{"ha":303,"x_min":-35,"x_max":338,"o":"m 106 982 q 119 1008 106 1000 q 151 1015 133 1015 q 183 1008 168 1015 q 197 982 197 1000 l 197 36 q 183 9 197 18 q 151 0 168 0 q 119 9 133 0 q 106 36 106 18 l 106 982 m 7 1179 q 1 1176 4 1178 q -6 1175 -3 1175 q -26 1185 -17 1175 q -35 1211 -35 1196 q -31 1228 -35 1219 q -17 1242 -26 1236 l 128 1319 q 151 1326 139 1326 q 175 1319 164 1326 l 319 1242 q 333 1228 329 1238 q 338 1210 338 1219 q 329 1186 338 1196 q 310 1176 321 1176 q 303 1178 307 1176 q 296 1181 299 1179 l 151 1257 l 7 1179 z "},"Ï":{"ha":303,"x_min":15,"x_max":288,"o":"m 106 982 q 119 1008 106 1000 q 151 1015 133 1015 q 183 1008 168 1015 q 197 982 197 1000 l 197 36 q 183 9 197 18 q 151 0 168 0 q 119 9 133 0 q 106 36 106 18 l 106 982 m 67 1278 q 102 1264 88 1278 q 117 1228 117 1250 q 102 1192 117 1207 q 67 1176 88 1176 q 30 1192 44 1176 q 15 1228 15 1207 q 30 1264 15 1250 q 67 1278 44 1278 m 238 1278 q 274 1264 260 1278 q 288 1228 288 1250 q 274 1192 288 1207 q 238 1176 260 1176 q 201 1192 215 1176 q 186 1228 186 1207 q 201 1264 186 1250 q 238 1278 215 1278 z "},"İ":{"ha":303,"x_min":100,"x_max":201,"o":"m 106 982 q 119 1008 106 1000 q 151 1015 133 1015 q 183 1008 168 1015 q 197 982 197 1000 l 197 36 q 183 9 197 18 q 151 0 168 0 q 119 9 133 0 q 106 36 106 18 l 106 982 m 151 1278 q 187 1264 172 1278 q 201 1228 201 1250 q 187 1192 201 1207 q 151 1176 172 1176 q 115 1192 129 1176 q 100 1228 100 1207 q 115 1264 100 1250 q 151 1278 129 1278 z "},"Ì":{"ha":303,"x_min":40,"x_max":256,"o":"m 106 982 q 119 1008 106 1000 q 151 1015 133 1015 q 183 1008 168 1015 q 197 982 197 1000 l 197 36 q 183 9 197 18 q 151 0 168 0 q 119 9 133 0 q 106 36 106 18 l 106 982 m 58 1257 q 40 1288 40 1265 q 49 1314 40 1301 q 74 1326 58 1326 q 86 1322 79 1326 l 240 1238 q 256 1213 256 1229 q 245 1185 256 1197 q 219 1174 235 1174 q 206 1178 211 1174 l 58 1257 z "},"Ī":{"ha":303,"x_min":-33,"x_max":335,"o":"m 106 982 q 119 1008 106 1000 q 151 1015 133 1015 q 183 1008 168 1015 q 197 982 197 1000 l 197 36 q 183 9 197 18 q 151 0 168 0 q 119 9 133 0 q 106 36 106 18 l 106 982 m -33 1269 q -24 1295 -33 1285 q 1 1306 -14 1306 l 300 1306 q 324 1295 313 1306 q 335 1269 335 1285 q 324 1244 335 1254 q 300 1235 313 1235 l 1 1235 q -24 1244 -14 1235 q -33 1269 -33 1254 z "},"Į":{"ha":303,"x_min":24,"x_max":197,"o":"m 165 -225 q 193 -250 193 -225 q 185 -267 193 -261 q 158 -274 178 -274 q 109 -268 133 -274 q 66 -250 85 -262 q 35 -217 47 -237 q 24 -169 24 -197 q 48 -71 24 -117 q 113 14 72 -25 q 106 36 106 24 l 106 982 q 119 1008 106 1000 q 151 1015 133 1015 q 183 1008 168 1015 q 197 982 197 1000 l 197 36 q 174 4 197 14 q 106 -73 133 -32 q 79 -162 79 -114 q 102 -210 79 -196 q 165 -225 125 -225 z "},"Ĩ":{"ha":303,"x_min":-64,"x_max":367,"o":"m 106 982 q 119 1008 106 1000 q 151 1015 133 1015 q 183 1008 168 1015 q 197 982 197 1000 l 197 36 q 183 9 197 18 q 151 0 168 0 q 119 9 133 0 q 106 36 106 18 l 106 982 m 65 1247 q 27 1240 43 1247 q 0 1225 11 1233 q -20 1210 -11 1217 q -37 1203 -29 1203 q -58 1215 -51 1203 q -64 1238 -64 1226 q -51 1272 -64 1257 q -20 1297 -39 1286 q 20 1312 -1 1307 q 58 1317 42 1317 q 107 1309 85 1317 q 150 1293 129 1301 q 192 1277 171 1285 q 242 1269 214 1269 q 280 1276 265 1269 q 304 1290 294 1282 q 322 1303 314 1297 q 339 1310 329 1310 q 360 1299 353 1310 q 367 1278 367 1288 q 354 1242 367 1257 q 324 1217 342 1226 q 285 1203 306 1207 q 250 1199 265 1199 q 200 1206 222 1199 q 158 1223 178 1214 q 115 1240 138 1232 q 65 1247 93 1247 z "},"J":{"ha":711,"x_min":32,"x_max":610,"o":"m 322 931 q 297 944 306 931 q 288 975 288 957 q 296 1003 288 990 q 322 1015 304 1015 l 567 1015 q 597 1007 583 1015 q 610 981 610 999 l 610 289 q 588 151 610 207 q 526 59 565 94 q 435 8 488 24 q 324 -8 383 -8 q 203 10 257 -8 q 111 60 149 28 q 53 138 74 93 q 32 236 32 183 q 44 274 32 264 q 76 283 56 283 q 109 275 94 283 q 124 247 124 267 q 177 122 124 168 q 321 76 231 76 q 466 128 414 76 q 518 289 518 181 l 518 931 l 322 931 z "},"Ĵ":{"ha":711,"x_min":32,"x_max":610,"o":"m 211 1179 q 205 1176 208 1178 q 199 1175 201 1175 q 178 1185 188 1175 q 169 1211 169 1196 q 174 1228 169 1219 q 188 1242 178 1236 l 332 1319 q 356 1326 343 1326 q 379 1319 368 1326 l 524 1242 q 538 1228 533 1238 q 542 1210 542 1219 q 533 1186 542 1196 q 514 1176 525 1176 q 507 1178 511 1176 q 500 1181 503 1179 l 356 1257 l 211 1179 m 322 931 q 297 944 306 931 q 288 975 288 957 q 296 1003 288 990 q 322 1015 304 1015 l 567 1015 q 597 1007 583 1015 q 610 981 610 999 l 610 289 q 588 151 610 207 q 526 59 565 94 q 435 8 488 24 q 324 -8 383 -8 q 203 10 257 -8 q 111 60 149 28 q 53 138 74 93 q 32 236 32 183 q 44 274 32 264 q 76 283 56 283 q 109 275 94 283 q 124 247 124 267 q 177 122 124 168 q 321 76 231 76 q 466 128 414 76 q 518 289 518 181 l 518 931 l 322 931 z "},"K":{"ha":725,"x_min":106,"x_max":719,"o":"m 106 982 q 119 1008 106 1000 q 151 1015 133 1015 q 183 1008 168 1015 q 197 982 197 1000 l 197 490 l 599 1001 q 628 1015 608 1015 q 661 1001 644 1015 q 678 968 678 986 q 676 958 678 964 q 671 947 675 953 l 372 576 l 714 63 q 719 44 719 51 q 703 11 719 25 q 667 -3 686 -3 q 632 18 646 -3 l 311 500 l 197 356 l 197 36 q 183 9 197 18 q 151 0 168 0 q 119 9 133 0 q 106 36 106 18 l 106 982 z "},"Ķ":{"ha":725,"x_min":106,"x_max":719,"o":"m 307 -215 q 292 -219 299 -219 q 267 -208 276 -219 q 257 -181 257 -196 q 272 -156 257 -164 l 426 -69 q 439 -67 435 -67 q 463 -79 454 -67 q 472 -106 472 -92 q 454 -136 472 -126 l 307 -215 m 106 982 q 119 1008 106 1000 q 151 1015 133 1015 q 183 1008 168 1015 q 197 982 197 1000 l 197 490 l 599 1001 q 628 1015 608 1015 q 661 1001 644 1015 q 678 968 678 986 q 676 958 678 964 q 671 947 675 953 l 372 576 l 714 63 q 719 44 719 51 q 703 11 719 25 q 667 -3 686 -3 q 632 18 646 -3 l 311 500 l 197 356 l 197 36 q 183 9 197 18 q 151 0 168 0 q 119 9 133 0 q 106 36 106 18 l 106 982 z "},"L":{"ha":643,"x_min":106,"x_max":624,"o":"m 147 0 q 119 9 132 0 q 106 36 106 18 l 106 982 q 119 1008 106 1000 q 151 1015 133 1015 q 183 1008 168 1015 q 197 982 197 1000 l 197 85 l 593 85 q 616 72 608 85 q 624 43 624 58 q 616 13 624 26 q 593 0 608 0 l 147 0 z "},"Ĺ":{"ha":643,"x_min":106,"x_max":624,"o":"m 303 1178 q 289 1174 296 1174 q 263 1185 274 1174 q 253 1213 253 1197 q 268 1238 253 1229 l 424 1322 q 435 1326 428 1326 q 459 1314 450 1326 q 468 1288 468 1301 q 451 1257 468 1265 l 303 1178 m 147 0 q 119 9 132 0 q 106 36 106 18 l 106 982 q 119 1008 106 1000 q 151 1015 133 1015 q 183 1008 168 1015 q 197 982 197 1000 l 197 85 l 593 85 q 616 72 608 85 q 624 43 624 58 q 616 13 624 26 q 593 0 608 0 l 147 0 z "},"Ľ":{"ha":643,"x_min":106,"x_max":624,"o":"m 472 1029 q 517 1010 499 1029 q 536 965 536 992 q 479 808 536 933 q 454 792 472 792 q 432 799 443 792 q 421 821 421 807 q 424 833 421 829 l 450 906 q 419 929 431 913 q 408 965 408 946 q 426 1010 408 992 q 472 1029 444 1029 m 147 0 q 119 9 132 0 q 106 36 106 18 l 106 982 q 119 1008 106 1000 q 151 1015 133 1015 q 183 1008 168 1015 q 197 982 197 1000 l 197 85 l 593 85 q 616 72 608 85 q 624 43 624 58 q 616 13 624 26 q 593 0 608 0 l 147 0 z "},"Ļ":{"ha":643,"x_min":106,"x_max":624,"o":"m 297 -215 q 282 -219 289 -219 q 257 -208 267 -219 q 247 -181 247 -196 q 263 -156 247 -164 l 417 -69 q 429 -67 425 -67 q 453 -79 444 -67 q 463 -106 463 -92 q 444 -136 463 -126 l 297 -215 m 147 0 q 119 9 132 0 q 106 36 106 18 l 106 982 q 119 1008 106 1000 q 151 1015 133 1015 q 183 1008 168 1015 q 197 982 197 1000 l 197 85 l 593 85 q 616 72 608 85 q 624 43 624 58 q 616 13 624 26 q 593 0 608 0 l 147 0 z "},"Ŀ":{"ha":643,"x_min":106,"x_max":624,"o":"m 147 0 q 119 9 132 0 q 106 36 106 18 l 106 982 q 119 1008 106 1000 q 151 1015 133 1015 q 183 1008 168 1015 q 197 982 197 1000 l 197 85 l 593 85 q 616 72 608 85 q 624 43 624 58 q 616 13 624 26 q 593 0 608 0 l 147 0 m 468 647 q 515 629 496 647 q 533 585 533 611 q 515 541 533 560 q 468 522 496 522 q 422 541 440 522 q 403 585 403 560 q 422 629 403 611 q 468 647 440 647 z "},"Ł":{"ha":651,"x_min":3,"x_max":632,"o":"m 156 0 q 127 9 140 0 q 114 36 114 18 l 114 401 l 51 368 q 38 364 44 364 q 13 378 24 364 q 3 408 3 392 q 18 435 3 426 l 114 488 l 114 982 q 128 1008 114 1000 q 160 1015 142 1015 q 191 1008 176 1015 q 206 982 206 1000 l 206 538 l 340 611 q 354 614 344 614 q 380 601 369 614 q 390 574 390 589 q 374 544 390 554 l 206 451 l 206 85 l 601 85 q 624 72 617 85 q 632 43 632 58 q 624 13 632 26 q 601 0 617 0 l 156 0 z "}}}
